<?xml version="1.0" encoding="utf-8"?>
<!DOCTYPE svg PUBLIC "-//W3C//DTD SVG 1.1//EN" "http://www.w3.org/Graphics/SVG/1.1/DTD/svg11.dtd">
<svg version="1.1" id="Layer_1" xmlns="http://www.w3.org/2000/svg" xmlns:xlink="http://www.w3.org/1999/xlink" x="0px" y="0px"
	 width="157px" height="46px" viewBox="0 0 157 46" enable-background="new 0 0 157 46" xml:space="preserve">
<g>
	<path fill="#FFFFFF" d="M4.71,35.9c-0.98-0.34-1.89-0.85-2.74-1.62c-0.93-0.85-1.55-2.21-1.82-3.62c-0.22-1.12-0.14-2.3-0.14-3.44
		v-24c0-0.89,0.49-1.77,1.39-1.98c0.91-0.21,1.88-0.05,2.66,0.38l0,26c0,1.42-0.08,3.12,1.12,4.11c0.42,0.35-0.67-0.56,0,0
		c0.2,0.17,0.42,0.32,0.67,0.45 M139.2,25.85c0-1.53-0.1-3.11,0.07-4.63c0.18-1.61,0.75-3.26,1.97-4.38c1.24-1.15,3-1.47,4.64-1.48
		c1.68-0.02,3.47,0.27,4.8,1.37c1.28,1.07,1.88,2.73,2.09,4.35c0.19,1.54,0.09,3.15,0.09,4.7v9.69l4.15,0.01V23.32
		c0-1.95,0.02-3.88-0.76-5.72c-0.77-1.82-2.08-3.37-3.78-4.39c-1.72-1.03-3.67-1.49-5.66-1.58c-2.04-0.09-4.16,0.14-6.04,0.97
		c-1.82,0.81-3.35,2.1-4.37,3.83c-0.94,1.6-1.35,3.41-1.35,5.27v13.78l4.15,0.01V25.85z M127.16,27.18c-0.68,1.9-2.1,3.45-3.9,4.35
		c-1.81,0.91-4.03,1.07-5.98,0.52c-4.03-1.14-6.21-5.39-5.74-9.39c0.24-2.01,1.1-3.93,2.59-5.33c1.52-1.42,3.57-2.05,5.62-2.02
		c2.04,0.03,4.05,0.72,5.52,2.18c1.46,1.45,2.27,3.39,2.45,5.43C127.84,24.37,127.66,25.82,127.16,27.18z M131.19,19.04
		c-0.76-1.81-1.94-3.46-3.47-4.68c-1.6-1.28-3.5-2.12-5.51-2.51c-4.08-0.78-8.58,0.3-11.55,3.29c-3,3-4.21,7.43-3.25,11.56
		c0.93,4,3.85,7.18,7.66,8.62c3.83,1.45,8.41,0.93,11.8-1.38c3.46-2.36,5.41-6.43,5.25-10.6C132.06,21.86,131.76,20.4,131.19,19.04z
		 M94.2,6.87c-0.38,0.43-0.55,0.98-0.55,1.55v19.14c0,1.83,0.02,3.64,0.96,5.29c0.98,1.72,2.77,2.77,4.68,3.1
		c1.06,0.19,2.15,0.2,3.22,0.08c1.02-0.11,2.1-0.29,3.05-0.69c1.08-0.43,2.01-0.95,2.73-1.58l-1.95-2.89
		c-1.14,0.75-2.26,1.24-3.31,1.45c-1.53,0.25-3.78,0.07-4.67-1.41c-0.5-0.83-0.55-1.83-0.55-2.77v-12l9.06-0.01
		c0.24-0.72,0.55-1.52,0.39-2.29c-0.18-0.87-0.76-1.44-1.64-1.56c-0.3-0.04-0.6-0.04-0.91-0.04l-6.91,0l0-5.5
		c-0.19-0.11-0.69-0.31-0.98-0.37C95.63,6.13,94.73,6.27,94.2,6.87z M85.47,35.48V23.37c0-2.35,0.1-5.12-1.88-6.78
		c-1.49-1.25-3.75-1.38-5.6-1.17c-1.93,0.22-3.77,1.09-4.9,2.72c-1.3,1.87-1.27,4.09-1.27,6.25c0,3.69,0,7.38,0,11.07
		c0,0.04-4.16,0.02-4.16,0.01V3.54c0-0.58,0.2-1.18,0.61-1.6c0.63-0.63,1.69-0.63,2.51-0.45c0.15,0.03,1.04,0.25,1.04,0.41v12.52
		c0.85-0.9,2.02-1.52,3.14-1.97c1.32-0.53,2.72-0.77,4.14-0.82c2.47-0.09,5.04,0.31,7.09,1.79c2.49,1.79,3.43,4.62,3.43,7.59v14.48
		L85.47,35.48z M59.66,27.23c-0.68,1.87-1.97,3.37-3.73,4.3c-1.81,0.96-4.02,1.12-5.99,0.62c-1.9-0.48-3.55-1.69-4.55-3.38
		c-1.07-1.81-1.42-4.04-1.17-6.11c0.25-2.01,1.09-3.99,2.64-5.34c1.54-1.34,3.45-1.97,5.47-1.95c2.07,0.03,4.03,0.75,5.51,2.23
		c1.44,1.44,2.18,3.42,2.34,5.42C60.29,24.42,60.15,25.89,59.66,27.23z M48.95,44.78c2.18,0.15,4.4,0.13,6.53-0.4
		c1.94-0.48,3.78-1.37,5.24-2.75c1.39-1.31,2.31-3.07,2.88-4.87c0.82-2.58,0.77-5.27,0.77-7.93c0-2.29,0.14-4.66-0.18-6.93
		c-0.55-3.94-2.86-7.47-6.53-9.17c-3.73-1.73-8.53-1.51-12.05,0.61c-3.65,2.2-5.79,6.15-5.83,10.39c-0.04,4.09,1.75,8.16,5.23,10.45
		c1.72,1.13,3.75,1.7,5.78,1.87c2.04,0.17,4.14-0.03,6.03-0.87c1.32-0.58,2.51-1.46,3.47-2.54c-0.07,1.87-0.44,3.64-1.51,5.21
		c-1.07,1.57-2.68,2.59-4.55,2.95c-3.66,0.69-7.35,0.19-10.81-1.16l-1.16,3.48C44.72,44.08,46.99,44.69,48.95,44.78z M36.64,12.72
		c-0.29-0.15-0.63-0.28-1.04-0.39c-0.84-0.19-1.96-0.19-2.57,0.52c-0.37,0.43-0.54,0.98-0.54,1.54v21.09l4.17,0L36.64,12.72z
		 M36.49,3.08c-1.09-1.03-2.85-1.05-3.92,0.01c-1.12,1.11-1,2.87,0.07,3.96c1.03,1.05,2.74,1,3.78,0.01
		C37.56,5.99,37.58,4.19,36.49,3.08z M12.12,22.89c0.19-2.07,0.97-4.1,2.46-5.58c1.41-1.4,3.24-2.1,5.21-2.16
		c1.84-0.06,4.6,0.19,5.53,2.1c0.4,0.83,0.5,1.88,0.19,2.75c-0.3,0.85-0.95,1.41-1.75,1.79c-1.36,0.65-2.93,0.91-4.42,1.06
		C17.11,23.03,14.69,23.03,12.12,22.89z M27.18,30.38c0,0-1.4,0.72-1.47,0.75c-0.87,0.41-1.76,0.81-2.7,1.01
		c-1.01,0.22-2.07,0.26-3.1,0.2c-1.76-0.09-3.54-0.53-4.96-1.61c-1.4-1.05-2.29-2.61-2.66-4.31c1.44,0.06,2.87,0.09,4.31,0.09
		c1.98,0,3.99-0.09,5.94-0.48c1.86-0.37,3.74-0.94,5.23-2.18c1.6-1.33,2.2-3.34,2.04-5.38c-0.15-2-1.08-3.75-2.68-4.97
		c-1.52-1.16-3.36-1.66-5.24-1.83c-2.14-0.19-4.36-0.01-6.39,0.73c-3.84,1.41-6.59,4.72-7.47,8.69c-0.91,4.09-0.11,8.61,2.98,11.56
		c3.01,2.88,7.6,3.9,11.63,3.27c1.36-0.21,2.72-0.53,3.98-1.08c0.86-0.38,1.66-0.85,2.47-1.33L27.18,30.38z"/>
</g>
</svg>
